<svg width="20" height="20" viewBox="0 0 20 20" fill="none" xmlns="http://www.w3.org/2000/svg">
<path d="M5.11087 17.5C4.12921 17.5 3.33337 16.6834 3.33337 15.675V8.34003C3.33337 7.78587 3.57921 7.26087 4.00004 6.91503L8.88921 2.90003C9.20159 2.64135 9.59446 2.4998 10 2.4998C10.4056 2.4998 10.7985 2.64135 11.1109 2.90003L15.9992 6.91503C16.4209 7.26087 16.6667 7.78587 16.6667 8.34003V15.675C16.6667 16.6834 15.8709 17.5 14.8892 17.5H5.11087Z" stroke="#451A03" stroke-width="1.5" stroke-linecap="square"/>
<path d="M7.5 13.3333C8.20833 13.8583 9.07083 14.1667 10 14.1667C10.9292 14.1667 11.7917 13.8583 12.5 13.3333M7.91667 9.58334V9.16667M12.0833 9.58334V9.16667" stroke="#451A03" stroke-width="1.5" stroke-linecap="square"/>
</svg>
