<svg width="20" height="20" viewBox="0 0 20 20" fill="none" xmlns="http://www.w3.org/2000/svg">
<path d="M12.0833 9.99984C12.0833 9.4473 11.8638 8.9174 11.4731 8.5267C11.0824 8.136 10.5525 7.9165 9.99996 7.9165C9.44742 7.9165 8.91752 8.136 8.52682 8.5267C8.13612 8.9174 7.91663 9.4473 7.91663 9.99984C7.91663 10.5524 8.13612 11.0823 8.52682 11.473C8.91752 11.8637 9.44742 12.0832 9.99996 12.0832C10.5525 12.0832 11.0824 11.8637 11.4731 11.473C11.8638 11.0823 12.0833 10.5524 12.0833 9.99984Z" stroke="#71717A" stroke-width="1.5" stroke-linecap="square"/>
<path d="M8.33352 4.0751C8.33352 5.27093 6.83186 6.18677 5.77186 5.56843C3.87936 4.54927 2.44186 7.35593 4.11352 8.48177C5.13352 9.07677 5.13436 10.8818 4.11352 11.4776C2.31102 12.5701 3.95602 15.3609 5.77186 14.3826C6.92102 13.7126 8.33436 14.8093 8.33436 16.0126C8.33436 18.0218 11.651 17.9701 11.651 16.0126C11.651 14.7868 13.0427 13.7001 14.2127 14.3826C16.0794 15.3884 17.686 12.4559 15.871 11.4776C14.8494 10.8818 14.8502 9.06927 15.871 8.47427C17.6735 7.38177 16.0294 4.59093 14.2127 5.56843C13.1769 6.17343 11.6519 5.26593 11.651 4.0751C11.651 1.94177 8.33436 2.00843 8.33436 4.0751" stroke="#71717A" stroke-width="1.5" stroke-linecap="square"/>
</svg>
