<svg width="20" height="20" viewBox="0 0 20 20" fill="none" xmlns="http://www.w3.org/2000/svg">
<path d="M17.5 16.4583C17.5 14.7167 16.1083 12.235 14.1667 11.6858M12.5 16.4583C12.5 14.2492 10.2617 11.4583 7.5 11.4583C4.73833 11.4583 2.5 14.2492 2.5 16.4583M12.5 8.54166C13.163 8.54166 13.7989 8.27826 14.2678 7.80942C14.7366 7.34058 15 6.7047 15 6.04166C15 5.37862 14.7366 4.74273 14.2678 4.27389C13.7989 3.80505 13.163 3.54166 12.5 3.54166M10 6.04166C10 6.7047 9.73661 7.34058 9.26777 7.80942C8.79893 8.27826 8.16304 8.54166 7.5 8.54166C6.83696 8.54166 6.20107 8.27826 5.73223 7.80942C5.26339 7.34058 5 6.7047 5 6.04166C5 5.37862 5.26339 4.74273 5.73223 4.27389C6.20107 3.80505 6.83696 3.54166 7.5 3.54166C8.16304 3.54166 8.79893 3.80505 9.26777 4.27389C9.73661 4.74273 10 5.37862 10 6.04166Z" stroke="#71717A" stroke-width="1.5" stroke-linecap="square"/>
</svg>
